<svg width="20" height="20" viewBox="0 0 20 20" fill="none" xmlns="http://www.w3.org/2000/svg">
<path d="M9.99984 1.66675C5.40484 1.66675 1.6665 5.40508 1.6665 10.0001C1.6665 14.5951 5.40484 18.3334 9.99984 18.3334C14.5948 18.3334 18.3332 14.5951 18.3332 10.0001C18.3332 5.40508 14.5948 1.66675 9.99984 1.66675ZM9.99984 16.6667C6.324 16.6667 3.33317 13.6759 3.33317 10.0001C3.33317 6.32425 6.324 3.33341 9.99984 3.33341C13.6757 3.33341 16.6665 6.32425 16.6665 10.0001C16.6665 13.6759 13.6757 16.6667 9.99984 16.6667Z" fill="#6366F1"/>
<path d="M8.33273 11.3226L6.4169 9.41005L5.24023 10.5901L8.3344 13.6776L13.9227 8.08922L12.7444 6.91089L8.33273 11.3226Z" fill="#6366F1"/>
</svg>
