<svg width="20" height="20" viewBox="0 0 20 20" fill="none" xmlns="http://www.w3.org/2000/svg">
<path d="M8.33317 9.16678H5.91734C5.91734 9.16428 5.91734 9.16178 5.91817 9.15928C5.97234 8.89345 6.054 8.63095 6.16067 8.37845C6.26567 8.13095 6.39484 7.89262 6.54484 7.67012C6.69317 7.45012 6.86484 7.24262 7.05317 7.05345C7.24234 6.86512 7.44984 6.69345 7.6715 6.54428C7.89317 6.39428 8.13067 6.26595 8.37817 6.16095C8.62984 6.05428 8.89234 5.97262 9.15984 5.91845C9.70817 5.80595 10.2907 5.80595 10.8415 5.91845C11.1065 5.97262 11.3698 6.05428 11.6223 6.16095C11.869 6.26512 12.1065 6.39512 12.3307 6.54512C12.5523 6.69428 12.759 6.86512 12.9457 7.05262L14.1257 5.87595C13.864 5.61262 13.5723 5.37262 13.2623 5.16345C12.9515 4.95345 12.6182 4.77178 12.2723 4.62512C11.9182 4.47512 11.549 4.36095 11.1765 4.28512C10.4073 4.12762 9.594 4.12762 8.82734 4.28512C8.45317 4.36178 8.084 4.47595 7.73067 4.62595C7.3815 4.77262 7.04817 4.95345 6.73817 5.16345C6.42984 5.37095 6.13984 5.61095 5.87484 5.87512C5.60984 6.13928 5.37067 6.43012 5.164 6.73762C4.954 7.04845 4.77234 7.38178 4.62567 7.72928C4.47567 8.08262 4.3615 8.45178 4.28567 8.82512C4.26234 8.93762 4.24984 9.05262 4.23317 9.16678H1.6665L4.99984 12.5001L8.33317 9.16678ZM11.6665 10.8335H14.0823C14.0815 10.8359 14.0823 10.8385 14.0815 10.8401C14.0265 11.1101 13.9448 11.3726 13.8382 11.6218C13.7357 11.866 13.6065 12.1043 13.4557 12.3285C13.3065 12.5485 13.1348 12.7568 12.9448 12.9468C12.7573 13.1343 12.5507 13.3051 12.329 13.4551C12.1057 13.6051 11.8682 13.7343 11.6215 13.8393C11.369 13.946 11.1065 14.0276 10.8398 14.0818C10.2923 14.1943 9.709 14.1943 9.159 14.0818C8.89317 14.0276 8.63067 13.946 8.37817 13.8393C8.13067 13.7343 7.89234 13.6051 7.66984 13.4551C7.44984 13.3068 7.24234 13.1351 7.05317 12.9468L5.87484 14.1251C6.139 14.3893 6.42984 14.6293 6.73734 14.8368C7.04817 15.0468 7.3815 15.2285 7.729 15.3751C8.08234 15.5251 8.4515 15.6393 8.82484 15.7151C9.209 15.7935 9.604 15.8335 9.99984 15.8335C10.3957 15.8335 10.7907 15.7935 11.1732 15.7151C11.5473 15.6393 11.9173 15.5243 12.2707 15.3743C12.6165 15.2276 12.9498 15.0468 13.2607 14.8368C13.5707 14.6276 13.8623 14.3868 14.1232 14.1251C14.3873 13.861 14.6273 13.5701 14.8357 13.261C15.0473 12.9468 15.229 12.6135 15.3732 12.2718C15.5215 11.9218 15.6357 11.5526 15.7132 11.1751C15.7357 11.0626 15.749 10.9476 15.7657 10.8335H18.3332L14.9998 7.50012L11.6665 10.8335Z" fill="#33354D"/>
</svg>
