<svg width="18" height="18" viewBox="0 0 18 18" fill="none" xmlns="http://www.w3.org/2000/svg">
<path d="M17.283 7.35612H8.95597V10.8071H13.748C13.302 13.0001 11.435 14.2601 8.95597 14.2601C6.03297 14.2601 3.67697 11.9041 3.67697 8.98012C3.67697 6.05712 6.03297 3.70112 8.95597 3.70112C10.215 3.70112 11.353 4.14812 12.246 4.87912L14.846 2.28012C13.262 0.899119 11.231 0.0471191 8.95597 0.0471191C4.00197 0.0471191 0.0219727 4.02612 0.0219727 8.98112C0.0219727 13.9361 4.00097 17.9151 8.95597 17.9151C13.423 17.9151 17.485 14.6661 17.485 8.98112C17.485 8.45312 17.404 7.88412 17.283 7.35612Z" fill="#33354D"/>
</svg>
