<svg width="44" height="44" viewBox="0 0 44 44" fill="none" xmlns="http://www.w3.org/2000/svg">
<rect width="44" height="44" rx="6" fill="#EFF2FC"/>
<path d="M29.4558 18.9209C29.4467 18.29 29.33 17.6642 29.1067 17.0742C28.7158 16.0667 27.92 15.27 26.9125 14.88C26.33 14.6609 25.7142 14.5434 25.0908 14.53C24.2892 14.4942 24.035 14.4842 22 14.4842C19.965 14.4842 19.7042 14.4842 18.9083 14.53C18.2858 14.5434 17.67 14.6609 17.0875 14.88C16.08 15.27 15.2833 16.0667 14.8933 17.0742C14.6742 17.6567 14.5558 18.2725 14.5442 18.895C14.5083 19.6975 14.4975 19.9517 14.4975 21.9867C14.4975 24.0217 14.4975 24.2817 14.5442 25.0784C14.5567 25.7017 14.6742 26.3167 14.8933 26.9009C15.2842 27.9075 16.08 28.7042 17.0883 29.0942C17.6683 29.3209 18.2842 29.4492 18.9092 29.4692C19.7117 29.505 19.9658 29.5159 22.0008 29.5159C24.0358 29.5159 24.2967 29.5159 25.0925 29.4692C25.715 29.4567 26.3308 29.3392 26.9142 29.12C27.9217 28.7292 28.7175 27.9325 29.1083 26.9259C29.3275 26.3425 29.445 25.7275 29.4575 25.1034C29.4933 24.3017 29.5042 24.0475 29.5042 22.0117C29.5025 19.9767 29.5025 19.7184 29.4558 18.9209ZM21.995 25.835C19.8667 25.835 18.1425 24.1109 18.1425 21.9825C18.1425 19.8542 19.8667 18.13 21.995 18.13C24.1217 18.13 25.8475 19.8542 25.8475 21.9825C25.8475 24.1109 24.1217 25.835 21.995 25.835ZM26.0008 18.8859C25.5033 18.8859 25.1025 18.4842 25.1025 17.9875C25.1025 17.4909 25.5033 17.0892 26.0008 17.0892C26.4967 17.0892 26.8983 17.4909 26.8983 17.9875C26.8983 18.4842 26.4967 18.8859 26.0008 18.8859Z" fill="#33354D"/>
<path d="M21.995 24.485C23.3771 24.485 24.4975 23.3646 24.4975 21.9825C24.4975 20.6004 23.3771 19.48 21.995 19.48C20.6129 19.48 19.4925 20.6004 19.4925 21.9825C19.4925 23.3646 20.6129 24.485 21.995 24.485Z" fill="#33354D"/>
</svg>
