<svg width="18" height="14" viewBox="0 0 18 14" fill="none" xmlns="http://www.w3.org/2000/svg">
<path d="M15.6665 0.333496H2.33317C1.414 0.333496 0.666504 1.081 0.666504 2.00016V12.0002C0.666504 12.9193 1.414 13.6668 2.33317 13.6668H15.6665C16.5857 13.6668 17.3332 12.9193 17.3332 12.0002V2.00016C17.3332 1.081 16.5857 0.333496 15.6665 0.333496ZM15.6665 2.00016V2.426L8.99984 7.61183L2.33317 2.42683V2.00016H15.6665ZM2.33317 12.0002V4.53683L8.48817 9.32433C8.63817 9.44183 8.819 9.50016 8.99984 9.50016C9.18067 9.50016 9.3615 9.44183 9.5115 9.32433L15.6665 4.53683L15.6682 12.0002H2.33317Z" fill="#B4B7C9"/>
</svg>
