<svg width="44" height="44" viewBox="0 0 44 44" fill="none" xmlns="http://www.w3.org/2000/svg">
<rect width="44" height="44" rx="6" fill="#EFF2FC"/>
<path d="M29.9942 18.0025C29.8025 17.2875 29.24 16.7234 28.5258 16.5309C27.2208 16.1725 22 16.1667 22 16.1667C22 16.1667 16.78 16.1609 15.4742 16.5034C14.7742 16.6942 14.1958 17.2709 14.0025 17.985C13.6583 19.29 13.655 21.9967 13.655 21.9967C13.655 21.9967 13.6517 24.7167 13.9933 26.0084C14.185 26.7225 14.7475 27.2867 15.4625 27.4792C16.7808 27.8375 21.9875 27.8434 21.9875 27.8434C21.9875 27.8434 27.2083 27.8492 28.5133 27.5075C29.2267 27.3159 29.7917 26.7525 29.9858 26.0384C30.3308 24.7342 30.3333 22.0284 30.3333 22.0284C30.3333 22.0284 30.35 19.3075 29.9942 18.0025ZM20.33 24.5042L20.3342 19.5042L24.6733 22.0084L20.33 24.5042Z" fill="#33354D"/>
</svg>
